<?xml version="1.0" standalone="no"?>
<!DOCTYPE svg PUBLIC "-//W3C//DTD SVG 20010904//EN"
 "http://www.w3.org/TR/2001/REC-SVG-20010904/DTD/svg10.dtd">
<svg version="1.0" xmlns="http://www.w3.org/2000/svg"
 width="300.000000pt" height="99.453552pt" viewBox="0 0 300.000000 99.453552"
 preserveAspectRatio="xMidYMid meet">
<metadata>
Created by potrace 1.16, written by Peter Selinger 2001-2019
</metadata>
<g transform="translate(0.000000,99.453552) scale(0.054645,-0.054645)"
fill="#000000" stroke="none">
<path d="M580 1515 c-14 -7 -42 -16 -63 -19 -49 -8 -108 -47 -131 -88 -11 -18
-25 -37 -33 -41 -7 -4 -13 -14 -13 -21 0 -8 -7 -19 -15 -26 -8 -7 -23 -38 -31
-69 -9 -31 -19 -61 -21 -68 -2 -6 5 -14 16 -18 11 -3 23 -16 27 -27 9 -29 45
-57 64 -50 13 5 13 3 1 -11 -12 -15 -12 -17 4 -11 12 5 16 4 12 -3 -14 -23 76
-73 133 -73 17 0 38 4 48 9 61 30 112 49 112 42 0 -17 -53 -48 -109 -65 -58
-17 -84 -33 -75 -47 8 -14 62 -11 94 6 16 8 36 12 44 9 23 -9 46 14 46 47 0
15 5 31 10 34 6 3 10 2 10 -2 0 -5 38 -56 85 -113 57 -72 80 -107 72 -112 -8
-5 -4 -8 10 -8 13 0 37 -18 60 -46 l39 -45 -61 -64 c-34 -36 -78 -71 -98 -80
-32 -13 -35 -18 -26 -33 18 -28 109 -92 132 -92 32 0 84 40 108 85 12 22 27
43 33 47 7 5 7 8 -1 8 -7 0 -13 11 -13 25 0 23 2 24 20 13 11 -7 18 -19 15
-26 -3 -7 0 -10 6 -7 5 4 31 -13 57 -37 42 -39 175 -148 289 -236 31 -25 47
-31 59 -24 13 7 -11 29 -118 110 -215 162 -337 273 -339 306 -1 16 -2 17 -6 4
-5 -20 -125 104 -224 233 -87 111 -86 110 -51 103 43 -9 70 10 83 59 6 23 18
57 26 76 l14 35 -33 -26 c-18 -13 -41 -40 -50 -58 -14 -27 -60 -60 -84 -60
-16 0 3 38 35 71 21 22 49 61 62 85 20 40 21 50 12 82 -29 95 -56 162 -64 162
-6 0 -8 4 -4 10 8 13 -60 46 -110 53 -25 4 -49 1 -65 -8z"/>
<path d="M1143 1160 c-18 -11 -45 -37 -61 -59 -16 -22 -43 -51 -60 -66 -17
-14 -42 -48 -56 -76 -24 -49 -24 -53 -10 -87 8 -20 27 -51 42 -70 15 -19 33
-44 39 -56 12 -20 13 -20 13 -1 0 11 19 36 42 56 l43 36 0 109 c0 60 4 117 9
127 6 12 4 17 -7 17 -21 0 -31 17 -16 26 8 4 9 3 5 -4 -4 -7 -2 -12 3 -12 6 0
11 6 11 13 0 9 3 8 9 -2 7 -11 11 -8 17 10 6 20 13 59 10 59 -1 0 -15 -9 -33
-20z"/>
<path d="M1445 1043 c-41 -6 -56 -22 -27 -29 21 -6 22 -10 22 -135 0 -121 -1
-129 -22 -140 -19 -10 -20 -12 -4 -21 9 -5 33 -8 54 -6 28 2 36 7 32 18 -3 8
-5 76 -5 150 l0 135 31 3 c41 4 69 -27 69 -78 0 -47 -27 -80 -67 -80 -36 0
-36 -17 0 -25 63 -13 112 31 112 101 0 87 -69 125 -195 107z"/>
<path d="M3190 1021 c15 -29 13 -264 -2 -279 -18 -18 6 -32 54 -32 43 0 57 14
28 30 -18 10 -20 20 -20 139 l0 129 55 4 c30 1 60 2 65 0 6 -2 10 -57 10 -132
0 -109 -3 -130 -16 -138 -27 -15 -6 -32 40 -32 51 0 61 8 40 31 -12 14 -15 39
-12 140 2 68 7 132 12 142 8 16 -2 17 -128 17 -132 0 -136 -1 -126 -19z"/>
<path d="M1970 906 l0 -39 26 27 c22 21 30 24 41 14 12 -9 14 -28 10 -83 -3
-38 -7 -79 -9 -90 -2 -17 3 -20 40 -23 42 -3 56 9 27 26 -13 7 -15 24 -13 88
3 68 6 79 22 82 12 3 27 -5 37 -19 l19 -24 0 40 0 40 -100 0 -100 0 0 -39z"/>
<path d="M3605 941 c-11 -5 -36 -6 -56 -3 -40 5 -63 -14 -35 -30 14 -8 16 -29
16 -141 0 -73 -4 -139 -10 -147 -11 -18 5 -30 41 -30 32 0 42 9 28 26 -7 8
-11 67 -11 156 l0 143 34 3 c48 4 72 -25 72 -88 0 -58 -23 -90 -66 -90 -15 0
-28 -4 -28 -9 0 -13 55 -24 79 -16 32 10 64 71 63 121 -1 55 -14 80 -52 99
-32 17 -45 18 -75 6z"/>
<path d="M4075 936 c-37 -16 -55 -52 -55 -112 0 -37 6 -51 29 -75 16 -16 40
-29 53 -30 13 -1 32 -2 43 -3 11 0 26 6 33 14 12 13 13 13 7 0 -4 -8 1 -6 9 4
21 26 14 30 -28 16 -47 -15 -75 -5 -90 32 -28 66 19 162 66 137 15 -8 19 -18
16 -39 -5 -36 26 -49 43 -19 14 28 2 57 -31 74 -35 18 -56 18 -95 1z"/>
<path d="M4230 913 c0 -38 12 -41 42 -13 17 16 24 17 36 8 17 -15 12 -149 -7
-171 -14 -17 4 -27 49 -27 34 0 47 15 25 28 -13 7 -15 24 -13 88 3 68 6 79 22
82 12 3 27 -5 37 -19 l19 -24 0 40 0 40 -105 0 -105 0 0 -32z"/>
<path d="M1680 930 c0 -6 7 -13 15 -16 21 -9 22 -156 0 -174 -23 -19 -8 -30
41 -30 45 0 53 7 32 28 -10 10 -1 24 40 65 l52 52 0 -57 c0 -41 -4 -57 -16
-62 -28 -11 -4 -26 42 -26 47 0 51 5 29 34 -19 25 -19 106 -1 151 8 18 12 36
8 39 -3 3 -25 6 -49 6 -44 0 -56 -12 -27 -28 21 -12 16 -20 -47 -73 l-51 -43
5 50 c2 27 8 59 12 72 7 21 5 22 -39 22 -25 0 -46 -5 -46 -10z"/>
<path d="M2210 930 c-13 -9 -13 -12 3 -24 13 -10 17 -28 17 -78 0 -50 4 -69
18 -81 21 -19 58 -22 96 -7 26 9 26 9 26 -38 0 -61 -16 -85 -55 -80 -26 3 -30
7 -29 33 0 17 4 38 8 47 6 13 3 15 -14 11 -33 -9 -53 -45 -41 -76 11 -27 26
-34 81 -38 77 -6 90 23 90 200 l0 141 -31 0 c-26 0 -29 -2 -19 -14 6 -8 12
-40 13 -70 1 -64 -20 -96 -63 -96 -35 0 -40 13 -40 106 0 70 -1 74 -22 74 -13
0 -30 -5 -38 -10z"/>
<path d="M2509 911 c-25 -25 -29 -37 -29 -85 0 -43 5 -61 23 -82 30 -34 79
-37 109 -6 l22 21 11 -22 c11 -22 40 -29 62 -14 6 5 20 5 30 0 61 -29 84 4
108 150 6 34 9 38 33 35 26 -3 27 -5 30 -75 2 -62 0 -75 -17 -90 -26 -21 -12
-33 41 -33 39 0 60 16 34 26 -13 5 -16 23 -16 83 0 43 5 82 11 88 24 24 -3 33
-94 33 l-92 0 24 -19 c24 -19 25 -21 13 -82 -6 -34 -18 -70 -27 -78 -13 -13
-16 -13 -29 4 -14 20 -15 20 -36 -2 -37 -40 -42 -30 -38 72 3 108 6 105 -84
105 -53 0 -63 -3 -89 -29z m129 -62 c3 -51 0 -59 -24 -78 -52 -41 -89 -15 -86
63 3 53 26 78 71 74 l36 -3 3 -56z"/>
<path d="M3809 911 c-23 -24 -29 -38 -29 -75 0 -82 27 -113 105 -120 33 -4 50
0 67 14 27 21 16 40 -12 22 -26 -16 -72 -15 -96 2 -26 20 -26 106 1 136 22 24
70 27 79 4 11 -28 -21 -64 -55 -64 -20 0 -28 -4 -23 -11 10 -17 95 -4 111 17
17 24 16 55 -3 82 -12 18 -25 22 -65 22 -42 0 -55 -5 -80 -29z"/>
<path d="M4470 930 c0 -6 7 -13 15 -16 12 -5 15 -25 15 -89 0 -69 -3 -84 -17
-89 -26 -10 3 -26 48 -26 44 0 54 9 31 27 -16 12 -13 17 33 58 27 25 53 45 57
45 5 0 8 -18 8 -40 0 -28 -6 -45 -20 -57 -25 -21 -10 -33 42 -33 41 0 57 14
32 28 -13 7 -15 22 -11 83 2 41 6 83 8 94 4 17 -2 20 -43 23 -51 3 -59 -3 -30
-24 16 -13 12 -18 -38 -66 -54 -52 -55 -52 -58 -27 -2 14 3 44 11 67 8 23 12
44 9 47 -10 10 -92 5 -92 -5z"/>
<path d="M655 844 c-27 -8 -86 -16 -130 -18 -144 -6 -132 0 -94 -43 18 -21 42
-40 53 -43 12 -3 22 -15 24 -25 6 -31 15 -36 76 -36 50 -1 65 4 109 34 29 19
71 45 95 57 49 24 49 36 2 68 -37 25 -64 26 -135 6z"/>
</g>
</svg>
